<svg width="98" height="41" viewBox="0 0 98 41" fill="none" xmlns="http://www.w3.org/2000/svg">
<path d="M6.84315 40.1056C3.72526 39.5823 1.17129 37.2931 0.295523 34.2369L0.0528268 33.3903V20.1082C0.0528268 5.13075 -0.0119002 6.3277 0.896003 4.49787C1.90269 2.46887 3.67032 0.994537 5.92942 0.299618L6.72031 0.0564575L19.579 0.0217393C28.7843 -0.0043137 32.6768 0.022119 33.2793 0.108137C36.0871 0.509353 38.5065 2.37135 39.5912 4.96557C40.2343 6.50357 40.2164 6.07201 40.2164 20.1072C40.2164 31.3726 40.1947 33.0206 40.0493 33.7377C39.384 36.9826 36.8275 39.4708 33.549 40.0644C32.9073 40.1807 30.3231 40.2064 20.0554 40.1995C13.0704 40.1951 7.12485 40.1521 6.84309 40.1048L6.84315 40.1056ZM33.7766 37.2786C35.6251 36.6506 37.0242 35.1054 37.4152 33.2601C37.6414 32.1934 37.6414 8.02311 37.4152 6.95637C37.0153 5.06814 35.5954 3.52565 33.7122 2.93317L32.967 2.69869H20.1082C7.93172 2.69869 7.21592 2.70737 6.61457 2.89321C4.8246 3.44115 3.4411 4.82465 2.89316 6.61462C2.70905 7.21597 2.69863 7.93184 2.69863 20.1083C2.69863 32.2849 2.70732 33.0007 2.89316 33.602C3.5269 35.6724 5.23011 37.1509 7.34504 37.4667C7.64161 37.511 13.5519 37.5405 20.4787 37.5327L33.0728 37.5197L33.7766 37.2786ZM9.10163 33.8734C8.11344 33.5716 7.22595 32.8034 6.78896 31.8713L6.50889 31.2736V20.1082V8.94286L6.749 8.42209C7.11548 7.62787 7.63951 7.06106 8.37851 6.66041L9.04889 6.29699L20.1547 6.26658C29.999 6.24053 31.3172 6.2579 31.7592 6.4038C32.9381 6.79546 33.8195 7.73785 34.1278 8.9365C34.3722 9.88722 34.3718 30.327 34.1275 31.2758C33.735 32.7992 32.3163 33.9609 30.8405 33.9677L30.3013 33.9703L30.2323 32.4621C30.1932 31.6327 30.1628 30.4063 30.1623 29.737C30.1615 28.3782 30.1407 28.3234 29.2654 27.2474L28.7865 26.6596V25.2015V23.7434L29.3675 23.5025C31.3401 22.6849 31.8317 20.089 30.3034 18.5607C29.4373 17.6947 27.9968 17.4632 26.9214 18.0174C25.765 18.6133 25.0885 19.8234 25.2316 21.0404C25.3605 22.1361 26.1796 23.2057 27.1336 23.5237L27.5687 23.6688L27.5818 25.1946C27.5948 26.9634 27.6512 27.1521 28.4551 28.1118L28.9999 28.7623V31.3662V33.9701H25.0311H21.0624L21.0754 31.2449C21.0798 29.746 21.1188 28.2355 21.1549 27.8882C21.2187 27.2936 21.2422 27.2513 21.5539 27.1622C21.7359 27.1101 22.1162 26.893 22.3988 26.6794C23.8377 25.5919 23.9522 23.3945 22.6345 22.1547C22.0174 21.5739 21.4207 21.3357 20.5878 21.3375C19.3227 21.3402 18.4346 21.8922 17.8787 23.0212C17.5726 23.6435 17.5478 23.7682 17.5939 24.4705C17.6542 25.3931 17.9022 25.9288 18.5417 26.5169C18.9546 26.8964 19.2048 27.0369 19.8326 27.2411C19.9763 27.288 20.0128 27.3691 19.9664 27.542C19.9316 27.6722 19.9021 29.1719 19.9016 30.8744L19.9003 33.9701H15.9844H12.0686V30.9783V27.9866L12.5062 27.4593C12.7468 27.1693 13.0684 26.7452 13.2206 26.5168L13.4972 26.1013L13.5501 23.2973L13.6031 20.4934L13.9206 20.3909C14.5817 20.1773 15.2219 19.5935 15.5694 18.8877C15.8703 18.2764 15.8981 18.1379 15.8594 17.439C15.8095 16.5325 15.5828 16.0001 14.9982 15.4156C14.4158 14.8332 13.7644 14.5714 12.8976 14.5714C10.672 14.5714 9.22851 16.8791 10.2053 18.8757C10.5475 19.5749 11.3147 20.2489 11.9692 20.4251L12.3861 20.5371L12.3854 23.0465C12.3847 25.8217 12.3984 25.7643 11.6571 26.6411C10.9121 27.5245 10.9044 27.5687 10.9044 30.9501V33.9697L10.1371 33.9611C9.71509 33.9567 9.25078 33.9154 9.10527 33.8711L9.10163 33.8734ZM19.5667 25.3065C19.2019 24.9414 19.1559 24.838 19.1563 24.3805C19.1577 22.5401 21.6809 22.3339 21.9757 24.1503C22.1146 25.0056 21.4418 25.7164 20.4928 25.7171C20.0353 25.7174 19.9317 25.6715 19.5668 25.3067L19.5667 25.3065ZM27.4309 21.9047C26.8467 21.5486 26.617 20.7223 26.9324 20.1123C27.2967 19.4076 28.0322 19.1307 28.7631 19.4232C29.3901 19.6742 29.6751 20.1647 29.6068 20.8757C29.5629 21.3303 29.4926 21.4747 29.1722 21.7685C28.8509 22.0629 28.7091 22.1189 28.2854 22.1185C27.9667 22.1183 27.6524 22.0395 27.4309 21.9044V21.9047ZM12.4354 18.8881C11.0999 18.4229 11.1611 16.5498 12.5236 16.1829C12.8627 16.0917 13.0334 16.1043 13.4125 16.2493C13.9894 16.4695 14.2864 16.9121 14.287 17.5521C14.2878 18.5772 13.3939 19.2222 12.4352 18.8882L12.4354 18.8881Z" fill="white"/>
<path d="M52.4586 16.1914H50.1458V22.6059H49.2019V16.1914H46.8941V15.4106H52.4586V16.1914ZM55.1074 22.7047C54.3826 22.7047 53.7929 22.4675 53.3382 21.9931C52.8836 21.5154 52.6563 20.8779 52.6563 20.0806V19.9126C52.6563 19.3822 52.7567 18.9094 52.9577 18.4943C53.162 18.0759 53.4453 17.7497 53.8077 17.5158C54.1734 17.2786 54.5688 17.16 54.9938 17.16C55.6889 17.16 56.2292 17.389 56.6147 17.8469C57.0001 18.3048 57.1929 18.9605 57.1929 19.8138V20.1943H53.5705C53.5837 20.7214 53.7369 21.1481 54.0301 21.4742C54.3266 21.7971 54.7022 21.9585 55.1568 21.9585C55.4797 21.9585 55.7532 21.8926 55.9772 21.7608C56.2012 21.6291 56.3972 21.4544 56.5653 21.237L57.1237 21.6719C56.6756 22.3605 56.0035 22.7047 55.1074 22.7047ZM54.9938 17.9111C54.6248 17.9111 54.3151 18.0462 54.0647 18.3164C53.8143 18.5832 53.6595 18.9588 53.6002 19.4431H56.2786V19.3739C56.2523 18.9094 56.1271 18.5503 55.9031 18.2966C55.679 18.0396 55.3759 17.9111 54.9938 17.9111ZM60.4001 21.9585C60.7263 21.9585 61.0113 21.8597 61.2551 21.662C61.4989 21.4643 61.6339 21.2172 61.6603 20.9207H62.5251C62.5087 21.2271 62.4032 21.5187 62.2089 21.7954C62.0145 22.0722 61.7542 22.2929 61.428 22.4576C61.1052 22.6224 60.7625 22.7047 60.4001 22.7047C59.672 22.7047 59.0922 22.4626 58.6606 21.9783C58.2323 21.4907 58.0182 20.8252 58.0182 19.9818V19.8286C58.0182 19.308 58.1137 18.8452 58.3048 18.4399C58.4959 18.0347 58.7693 17.7201 59.1251 17.496C59.4842 17.272 59.9076 17.16 60.3952 17.16C60.9948 17.16 61.4923 17.3395 61.8876 17.6986C62.2863 18.0577 62.4988 18.5239 62.5251 19.0972H61.6603C61.6339 18.7513 61.5022 18.4679 61.265 18.2472C61.031 18.0232 60.7411 17.9111 60.3952 17.9111C59.9307 17.9111 59.5699 18.0792 59.3129 18.4152C59.0592 18.748 58.9324 19.2306 58.9324 19.8632V20.0361C58.9324 20.6522 59.0592 21.1266 59.3129 21.4594C59.5666 21.7921 59.929 21.9585 60.4001 21.9585ZM64.4673 17.9062C64.8725 17.4087 65.3996 17.16 66.0487 17.16C67.1787 17.16 67.7487 17.7975 67.7585 19.0725V22.6059H66.8443V19.0675C66.841 18.6821 66.7521 18.3971 66.5774 18.2126C66.4061 18.0281 66.1376 17.9359 65.7719 17.9359C65.4754 17.9359 65.2151 18.0149 64.9911 18.1731C64.7671 18.3312 64.5925 18.5388 64.4673 18.7957V22.6059H63.553V15.0152H64.4673V17.9062ZM73.7827 21.9585C74.1088 21.9585 74.3938 21.8597 74.6376 21.662C74.8814 21.4643 75.0165 21.2172 75.0428 20.9207H75.9077C75.8912 21.2271 75.7858 21.5187 75.5914 21.7954C75.397 22.0722 75.1367 22.2929 74.8106 22.4576C74.4877 22.6224 74.1451 22.7047 73.7827 22.7047C73.0546 22.7047 72.4747 22.4626 72.0431 21.9783C71.6148 21.4907 71.4007 20.8252 71.4007 19.9818V19.8286C71.4007 19.308 71.4962 18.8452 71.6873 18.4399C71.8784 18.0347 72.1518 17.7201 72.5077 17.496C72.8668 17.272 73.2901 17.16 73.7777 17.16C74.3773 17.16 74.8748 17.3395 75.2702 17.6986C75.6688 18.0577 75.8813 18.5239 75.9077 19.0972H75.0428C75.0165 18.7513 74.8847 18.4679 74.6475 18.2472C74.4136 18.0232 74.1236 17.9111 73.7777 17.9111C73.3132 17.9111 72.9524 18.0792 72.6955 18.4152C72.4418 18.748 72.3149 19.2306 72.3149 19.8632V20.0361C72.3149 20.6522 72.4418 21.1266 72.6955 21.4594C72.9491 21.7921 73.3115 21.9585 73.7827 21.9585ZM80.2367 22.6059C80.184 22.5005 80.1412 22.3127 80.1082 22.0425C79.6832 22.484 79.1759 22.7047 78.5861 22.7047C78.059 22.7047 77.6258 22.5565 77.2864 22.26C76.9504 21.9602 76.7824 21.5813 76.7824 21.1233C76.7824 20.5666 76.9932 20.135 77.4149 19.8286C77.8399 19.5189 78.4362 19.364 79.2039 19.364H80.0934V18.944C80.0934 18.6244 79.9979 18.3707 79.8068 18.1829C79.6157 17.9919 79.334 17.8963 78.9617 17.8963C78.6356 17.8963 78.3621 17.9787 78.1414 18.1434C77.9206 18.3081 77.8103 18.5075 77.8103 18.7414H76.8911C76.8911 18.4745 76.985 18.2175 77.1728 17.9704C77.3639 17.7201 77.6208 17.5224 77.9437 17.3774C78.2699 17.2325 78.6273 17.16 79.0161 17.16C79.6322 17.16 80.1148 17.3148 80.464 17.6245C80.8133 17.9309 80.9945 18.3543 81.0076 18.8946V21.3556C81.0076 21.8465 81.0702 22.2369 81.1954 22.5268V22.6059H80.2367ZM78.7196 21.9091C79.0062 21.9091 79.278 21.835 79.535 21.6867C79.7919 21.5385 79.9781 21.3457 80.0934 21.1085V20.0114H79.3768C78.2567 20.0114 77.6966 20.3392 77.6966 20.9949C77.6966 21.2815 77.7921 21.5055 77.9832 21.6669C78.1743 21.8284 78.4198 21.9091 78.7196 21.9091ZM85.0254 18.0792C84.887 18.0561 84.7371 18.0446 84.5757 18.0446C83.976 18.0446 83.5692 18.2999 83.355 18.8106V22.6059H82.4408V17.2588H83.3303L83.3451 17.8765C83.6449 17.3988 84.0699 17.16 84.6201 17.16C84.798 17.16 84.9331 17.183 85.0254 17.2292V18.0792ZM87.9905 22.7047C87.2657 22.7047 86.6759 22.4675 86.2213 21.9931C85.7666 21.5154 85.5393 20.8779 85.5393 20.0806V19.9126C85.5393 19.3822 85.6398 18.9094 85.8408 18.4943C86.045 18.0759 86.3284 17.7497 86.6908 17.5158C87.0565 17.2786 87.4518 17.16 87.8768 17.16C88.572 17.16 89.1123 17.389 89.4977 17.8469C89.8832 18.3048 90.0759 18.9605 90.0759 19.8138V20.1943H86.4536C86.4667 20.7214 86.6199 21.1481 86.9131 21.4742C87.2097 21.7971 87.5852 21.9585 88.0399 21.9585C88.3628 21.9585 88.6362 21.8926 88.8602 21.7608C89.0843 21.6291 89.2803 21.4544 89.4483 21.237L90.0067 21.6719C89.5587 22.3605 88.8866 22.7047 87.9905 22.7047ZM87.8768 17.9111C87.5078 17.9111 87.1981 18.0462 86.9477 18.3164C86.6974 18.5832 86.5425 18.9588 86.4832 19.4431H89.1617V19.3739C89.1353 18.9094 89.0101 18.5503 88.7861 18.2966C88.5621 18.0396 88.259 17.9111 87.8768 17.9111Z" fill="white"/>
<path d="M91.3553 22.0237H92.9096V22.3774H90.9205V19.0976H91.3553V22.0237ZM93.903 19.3499V19.9401H94.358V20.2622H93.903V21.7737C93.903 21.8713 93.9232 21.9449 93.9638 21.9944C94.0043 22.0425 94.0734 22.0665 94.171 22.0665C94.2191 22.0665 94.2852 22.0575 94.3692 22.0395V22.3774C94.2596 22.4074 94.153 22.4224 94.0494 22.4224C93.8632 22.4224 93.7228 22.3661 93.6281 22.2535C93.5335 22.1409 93.4862 21.9809 93.4862 21.7737V20.2622H93.0425V19.9401H93.4862V19.3499H93.903ZM94.7454 21.1385C94.7454 20.7645 94.834 20.4642 95.0112 20.2374C95.1884 20.0092 95.4205 19.895 95.7073 19.895C95.9926 19.895 96.2186 19.9926 96.3853 20.1879V18.9174H96.802V22.3774H96.4191L96.3988 22.1161C96.2321 22.3203 96.0001 22.4224 95.7028 22.4224C95.4205 22.4224 95.1899 22.3068 95.0112 22.0755C94.834 21.8443 94.7454 21.5424 94.7454 21.17V21.1385ZM95.1622 21.1858C95.1622 21.4621 95.2192 21.6783 95.3334 21.8345C95.4475 21.9907 95.6052 22.0688 95.8064 22.0688C96.0707 22.0688 96.2637 21.9501 96.3853 21.7129V20.5933C96.2607 20.3636 96.0692 20.2487 95.8109 20.2487C95.6067 20.2487 95.4475 20.3275 95.3334 20.4852C95.2192 20.6429 95.1622 20.8764 95.1622 21.1858Z" fill="white"/>
<path d="M50.3152 27.1323L49.556 28.5839V29.4635H49.2517V28.5839L48.4891 27.1323H48.8269L49.4022 28.313L49.9774 27.1323H50.3152ZM51.4356 29.4936C51.264 29.4936 51.1079 29.4546 50.9674 29.3765C50.8292 29.2985 50.7199 29.1881 50.6396 29.0454C50.5616 28.9005 50.5226 28.7333 50.5226 28.5437C50.5226 28.3564 50.5627 28.1914 50.643 28.0487C50.7255 27.9038 50.837 27.7934 50.9774 27.7176C51.1179 27.6396 51.2751 27.6005 51.449 27.6005C51.6229 27.6005 51.7801 27.6396 51.9206 27.7176C52.0611 27.7934 52.1715 27.9027 52.2517 28.0454C52.3342 28.1881 52.3755 28.3542 52.3755 28.5437C52.3755 28.7333 52.3331 28.9005 52.2484 29.0454C52.1659 29.1881 52.0533 29.2985 51.9106 29.3765C51.7679 29.4546 51.6096 29.4936 51.4356 29.4936ZM51.4356 29.226C51.5449 29.226 51.6475 29.2004 51.7433 29.1491C51.8392 29.0978 51.9162 29.0209 51.9741 28.9183C52.0343 28.8158 52.0644 28.6909 52.0644 28.5437C52.0644 28.3966 52.0354 28.2717 51.9775 28.1691C51.9195 28.0666 51.8437 27.9908 51.75 27.9417C51.6564 27.8904 51.5549 27.8648 51.4457 27.8648C51.3342 27.8648 51.2316 27.8904 51.138 27.9417C51.0466 27.9908 50.973 28.0666 50.9172 28.1691C50.8615 28.2717 50.8336 28.3966 50.8336 28.5437C50.8336 28.6931 50.8604 28.8191 50.9139 28.9217C50.9696 29.0242 51.0432 29.1012 51.1346 29.1525C51.226 29.2015 51.3264 29.226 51.4356 29.226ZM54.4011 27.6306V29.4635H54.0968V29.1926C54.0388 29.2862 53.9574 29.3598 53.8526 29.4133C53.7501 29.4646 53.6363 29.4903 53.5115 29.4903C53.3688 29.4903 53.2406 29.4613 53.1268 29.4033C53.0131 29.3431 52.9228 29.2539 52.8559 29.1357C52.7913 29.0176 52.7589 28.8737 52.7589 28.7043V27.6306H53.06V28.6641C53.06 28.8447 53.1057 28.9841 53.1971 29.0822C53.2885 29.1781 53.4134 29.226 53.5717 29.226C53.7344 29.226 53.8627 29.1759 53.9563 29.0755C54.05 28.9752 54.0968 28.8291 54.0968 28.6374V27.6306H54.4011ZM55.2194 27.9283C55.2729 27.8235 55.3487 27.7421 55.4468 27.6842C55.5472 27.6262 55.6687 27.5972 55.8114 27.5972V27.9116H55.7311C55.39 27.9116 55.2194 28.0967 55.2194 28.4668V29.4635H54.915V27.6306H55.2194V27.9283ZM57.4257 27.8815V28.9618C57.4257 29.051 57.4446 29.1145 57.4825 29.1525C57.5204 29.1881 57.5862 29.206 57.6799 29.206H57.904V29.4635H57.6297C57.4602 29.4635 57.3331 29.4245 57.2484 29.3464C57.1637 29.2684 57.1213 29.1402 57.1213 28.9618V27.8815H56.8838V27.6306H57.1213V27.1691H57.4257V27.6306H57.904V27.8815H57.4257ZM58.4299 27.333C58.3719 27.333 58.3229 27.3129 58.2828 27.2728C58.2426 27.2326 58.2226 27.1836 58.2226 27.1256C58.2226 27.0676 58.2426 27.0186 58.2828 26.9784C58.3229 26.9383 58.3719 26.9182 58.4299 26.9182C58.4857 26.9182 58.5325 26.9383 58.5704 26.9784C58.6105 27.0186 58.6306 27.0676 58.6306 27.1256C58.6306 27.1836 58.6105 27.2326 58.5704 27.2728C58.5325 27.3129 58.4857 27.333 58.4299 27.333ZM58.5771 27.6306V29.4635H58.2727V27.6306H58.5771ZM61.2999 27.5972C61.4426 27.5972 61.5697 27.6273 61.6812 27.6875C61.7927 27.7455 61.8808 27.8336 61.9454 27.9517C62.0101 28.0699 62.0424 28.2137 62.0424 28.3832V29.4635H61.7414V28.4267C61.7414 28.2438 61.6957 28.1045 61.6043 28.0086C61.5151 27.9105 61.3936 27.8614 61.2397 27.8614C61.0814 27.8614 60.9554 27.9127 60.8618 28.0153C60.7681 28.1156 60.7213 28.2617 60.7213 28.4534V29.4635H60.4203V28.4267C60.4203 28.2438 60.3746 28.1045 60.2832 28.0086C60.194 27.9105 60.0724 27.8614 59.9186 27.8614C59.7603 27.8614 59.6343 27.9127 59.5406 28.0153C59.447 28.1156 59.4002 28.2617 59.4002 28.4534V29.4635H59.0958V27.6306H59.4002V27.8949C59.4604 27.799 59.5406 27.7254 59.641 27.6741C59.7436 27.6228 59.8562 27.5972 59.9788 27.5972C60.1326 27.5972 60.2687 27.6318 60.3868 27.7009C60.505 27.77 60.5931 27.8715 60.6511 28.0052C60.7023 27.8759 60.7871 27.7756 60.9053 27.7042C61.0234 27.6329 61.155 27.5972 61.2999 27.5972ZM64.214 28.4768C64.214 28.5348 64.2106 28.5961 64.204 28.6608H62.739C62.7502 28.8414 62.8115 28.983 62.923 29.0856C63.0367 29.1859 63.1738 29.2361 63.3344 29.2361C63.4659 29.2361 63.5752 29.206 63.6621 29.1458C63.7513 29.0833 63.8138 29.0008 63.8494 28.8983H64.1772C64.1281 29.0744 64.03 29.2182 63.8829 29.3297C63.7357 29.439 63.5529 29.4936 63.3344 29.4936C63.1604 29.4936 63.0044 29.4546 62.8661 29.3765C62.7301 29.2985 62.6231 29.1881 62.545 29.0454C62.467 28.9005 62.428 28.7333 62.428 28.5437C62.428 28.3542 62.4659 28.1881 62.5417 28.0454C62.6175 27.9027 62.7234 27.7934 62.8594 27.7176C62.9977 27.6396 63.156 27.6005 63.3344 27.6005C63.5083 27.6005 63.6621 27.6385 63.7959 27.7143C63.9297 27.7901 64.0323 27.8949 64.1036 28.0287C64.1772 28.1602 64.214 28.3096 64.214 28.4768ZM63.8996 28.4133C63.8996 28.2973 63.874 28.1981 63.8227 28.1156C63.7714 28.0309 63.7012 27.9673 63.612 27.925C63.525 27.8804 63.428 27.8581 63.321 27.8581C63.1671 27.8581 63.0356 27.9071 62.9263 28.0052C62.8193 28.1034 62.758 28.2394 62.7424 28.4133H63.8996ZM65.6646 27.333C65.6066 27.333 65.5576 27.3129 65.5175 27.2728C65.4773 27.2326 65.4573 27.1836 65.4573 27.1256C65.4573 27.0676 65.4773 27.0186 65.5175 26.9784C65.5576 26.9383 65.6066 26.9182 65.6646 26.9182C65.7204 26.9182 65.7672 26.9383 65.8051 26.9784C65.8452 27.0186 65.8653 27.0676 65.8653 27.1256C65.8653 27.1836 65.8452 27.2326 65.8051 27.2728C65.7672 27.3129 65.7204 27.333 65.6646 27.333ZM65.8118 27.6306V29.4635H65.5074V27.6306H65.8118ZM66.9794 29.4936C66.8389 29.4936 66.7129 29.4702 66.6014 29.4234C66.4899 29.3743 66.4019 29.3074 66.3372 29.2227C66.2725 29.1357 66.2369 29.0365 66.2302 28.925H66.5446C66.5535 29.0164 66.5958 29.0911 66.6717 29.1491C66.7497 29.2071 66.8512 29.2361 66.976 29.2361C67.092 29.2361 67.1834 29.2104 67.2503 29.1591C67.3172 29.1079 67.3506 29.0432 67.3506 28.9652C67.3506 28.8849 67.3149 28.8258 67.2436 28.7879C67.1722 28.7478 67.0619 28.7087 66.9125 28.6708C66.7765 28.6352 66.665 28.5995 66.578 28.5638C66.4933 28.5259 66.4197 28.4713 66.3573 28.3999C66.2971 28.3263 66.267 28.2305 66.267 28.1123C66.267 28.0186 66.2948 27.9328 66.3506 27.8547C66.4063 27.7767 66.4855 27.7154 66.588 27.6708C66.6906 27.624 66.8077 27.6005 66.9392 27.6005C67.1421 27.6005 67.306 27.6518 67.4309 27.7544C67.5558 27.857 67.6226 27.9974 67.6316 28.1758H67.3272C67.3205 28.0799 67.2815 28.003 67.2101 27.945C67.141 27.8871 67.0474 27.8581 66.9292 27.8581C66.8199 27.8581 66.733 27.8815 66.6683 27.9283C66.6037 27.9751 66.5713 28.0365 66.5713 28.1123C66.5713 28.1725 66.5903 28.2226 66.6282 28.2628C66.6683 28.3007 66.7174 28.3319 66.7753 28.3564C66.8355 28.3787 66.918 28.4044 67.0228 28.4334C67.1544 28.469 67.2614 28.5047 67.3439 28.5404C67.4264 28.5738 67.4967 28.6251 67.5546 28.6942C67.6148 28.7634 67.6461 28.8537 67.6483 28.9652C67.6483 29.0655 67.6204 29.1558 67.5647 29.2361C67.5089 29.3163 67.4298 29.3799 67.3272 29.4267C67.2269 29.4713 67.1109 29.4936 66.9794 29.4936ZM69.769 29.4936C69.5973 29.4936 69.4412 29.4546 69.3007 29.3765C69.1625 29.2985 69.0532 29.1881 68.973 29.0454C68.8949 28.9005 68.8559 28.7333 68.8559 28.5437C68.8559 28.3564 68.896 28.1914 68.9763 28.0487C69.0588 27.9038 69.1703 27.7934 69.3108 27.7176C69.4512 27.6396 69.6084 27.6005 69.7824 27.6005C69.9563 27.6005 70.1135 27.6396 70.254 27.7176C70.3944 27.7934 70.5048 27.9027 70.5851 28.0454C70.6676 28.1881 70.7088 28.3542 70.7088 28.5437C70.7088 28.7333 70.6665 28.9005 70.5817 29.0454C70.4992 29.1881 70.3866 29.2985 70.2439 29.3765C70.1012 29.4546 69.9429 29.4936 69.769 29.4936ZM69.769 29.226C69.8782 29.226 69.9808 29.2004 70.0767 29.1491C70.1726 29.0978 70.2495 29.0209 70.3075 28.9183C70.3677 28.8158 70.3978 28.6909 70.3978 28.5437C70.3978 28.3966 70.3688 28.2717 70.3108 28.1691C70.2528 28.0666 70.177 27.9908 70.0834 27.9417C69.9897 27.8904 69.8883 27.8648 69.779 27.8648C69.6675 27.8648 69.565 27.8904 69.4713 27.9417C69.3799 27.9908 69.3063 28.0666 69.2506 28.1691C69.1948 28.2717 69.167 28.3966 69.167 28.5437C69.167 28.6931 69.1937 28.8191 69.2472 28.9217C69.303 29.0242 69.3766 29.1012 69.468 29.1525C69.5594 29.2015 69.6597 29.226 69.769 29.226ZM72.7345 27.6306V29.4635H72.4301V29.1926C72.3722 29.2862 72.2908 29.3598 72.186 29.4133C72.0834 29.4646 71.9697 29.4903 71.8448 29.4903C71.7021 29.4903 71.5739 29.4613 71.4602 29.4033C71.3465 29.3431 71.2562 29.2539 71.1893 29.1357C71.1246 29.0176 71.0923 28.8737 71.0923 28.7043V27.6306H71.3933V28.6641C71.3933 28.8447 71.439 28.9841 71.5304 29.0822C71.6218 29.1781 71.7467 29.226 71.905 29.226C72.0678 29.226 72.196 29.1759 72.2897 29.0755C72.3833 28.9752 72.4301 28.8291 72.4301 28.6374V27.6306H72.7345ZM73.5527 27.9283C73.6063 27.8235 73.6821 27.7421 73.7802 27.6842C73.8805 27.6262 74.002 27.5972 74.1447 27.5972V27.9116H74.0645C73.7233 27.9116 73.5527 28.0967 73.5527 28.4668V29.4635H73.2484V27.6306H73.5527V27.9283ZM75.6921 27.9685C75.7523 27.8637 75.8415 27.7767 75.9597 27.7076C76.0801 27.6362 76.2195 27.6005 76.3778 27.6005C76.5405 27.6005 76.6877 27.6396 76.8193 27.7176C76.953 27.7957 77.0578 27.906 77.1337 28.0487C77.2095 28.1892 77.2474 28.3531 77.2474 28.5404C77.2474 28.7255 77.2095 28.8905 77.1337 29.0354C77.0578 29.1803 76.953 29.2929 76.8193 29.3732C76.6877 29.4535 76.5405 29.4936 76.3778 29.4936C76.2217 29.4936 76.0834 29.459 75.963 29.3899C75.8449 29.3186 75.7546 29.2305 75.6921 29.1257V30.3331H75.3878V27.6306H75.6921V27.9685ZM76.9363 28.5404C76.9363 28.4021 76.9085 28.2817 76.8527 28.1792C76.797 28.0766 76.7212 27.9986 76.6253 27.945C76.5316 27.8915 76.4279 27.8648 76.3142 27.8648C76.2027 27.8648 76.0991 27.8926 76.0032 27.9484C75.9095 28.0019 75.8337 28.0811 75.7757 28.1859C75.72 28.2884 75.6921 28.4077 75.6921 28.5437C75.6921 28.682 75.72 28.8035 75.7757 28.9083C75.8337 29.0109 75.9095 29.09 76.0032 29.1458C76.0991 29.1993 76.2027 29.226 76.3142 29.226C76.4279 29.226 76.5316 29.1993 76.6253 29.1458C76.7212 29.09 76.797 29.0109 76.8527 28.9083C76.9085 28.8035 76.9363 28.6809 76.9363 28.5404ZM77.9524 27.9283C78.0059 27.8235 78.0817 27.7421 78.1798 27.6842C78.2801 27.6262 78.4016 27.5972 78.5444 27.5972V27.9116H78.4641C78.1229 27.9116 77.9524 28.0967 77.9524 28.4668V29.4635H77.648V27.6306H77.9524V27.9283ZM79.0529 27.333C78.9949 27.333 78.9459 27.3129 78.9057 27.2728C78.8656 27.2326 78.8455 27.1836 78.8455 27.1256C78.8455 27.0676 78.8656 27.0186 78.9057 26.9784C78.9459 26.9383 78.9949 26.9182 79.0529 26.9182C79.1086 26.9182 79.1555 26.9383 79.1934 26.9784C79.2335 27.0186 79.2536 27.0676 79.2536 27.1256C79.2536 27.1836 79.2335 27.2326 79.1934 27.2728C79.1555 27.3129 79.1086 27.333 79.0529 27.333ZM79.2001 27.6306V29.4635H78.8957V27.6306H79.2001ZM80.5181 29.4936C80.3465 29.4936 80.1904 29.4546 80.0499 29.3765C79.9117 29.2985 79.8024 29.1881 79.7221 29.0454C79.6441 28.9005 79.6051 28.7333 79.6051 28.5437C79.6051 28.3564 79.6452 28.1914 79.7255 28.0487C79.808 27.9038 79.9195 27.7934 80.0599 27.7176C80.2004 27.6396 80.3576 27.6005 80.5315 27.6005C80.7054 27.6005 80.8626 27.6396 81.0031 27.7176C81.1436 27.7934 81.254 27.9027 81.3342 28.0454C81.4167 28.1881 81.458 28.3542 81.458 28.5437C81.458 28.7333 81.4156 28.9005 81.3309 29.0454C81.2484 29.1881 81.1358 29.2985 80.9931 29.3765C80.8504 29.4546 80.6921 29.4936 80.5181 29.4936ZM80.5181 29.226C80.6274 29.226 80.73 29.2004 80.8259 29.1491C80.9217 29.0978 80.9987 29.0209 81.0566 28.9183C81.1168 28.8158 81.1469 28.6909 81.1469 28.5437C81.1469 28.3966 81.1179 28.2717 81.06 28.1691C81.002 28.0666 80.9262 27.9908 80.8325 27.9417C80.7389 27.8904 80.6374 27.8648 80.5282 27.8648C80.4167 27.8648 80.3141 27.8904 80.2205 27.9417C80.1291 27.9908 80.0555 28.0666 79.9997 28.1691C79.944 28.2717 79.9161 28.3966 79.9161 28.5437C79.9161 28.6931 79.9429 28.8191 79.9964 28.9217C80.0521 29.0242 80.1257 29.1012 80.2171 29.1525C80.3086 29.2015 80.4089 29.226 80.5181 29.226ZM82.1625 27.9283C82.216 27.8235 82.2918 27.7421 82.39 27.6842C82.4903 27.6262 82.6118 27.5972 82.7545 27.5972V27.9116H82.6743C82.3331 27.9116 82.1625 28.0967 82.1625 28.4668V29.4635H81.8582V27.6306H82.1625V27.9283ZM83.2631 27.333C83.2051 27.333 83.156 27.3129 83.1159 27.2728C83.0758 27.2326 83.0557 27.1836 83.0557 27.1256C83.0557 27.0676 83.0758 27.0186 83.1159 26.9784C83.156 26.9383 83.2051 26.9182 83.2631 26.9182C83.3188 26.9182 83.3656 26.9383 83.4035 26.9784C83.4437 27.0186 83.4637 27.0676 83.4637 27.1256C83.4637 27.1836 83.4437 27.2326 83.4035 27.2728C83.3656 27.3129 83.3188 27.333 83.2631 27.333ZM83.4102 27.6306V29.4635H83.1059V27.6306H83.4102ZM84.3002 27.8815V28.9618C84.3002 29.051 84.3192 29.1145 84.3571 29.1525C84.395 29.1881 84.4607 29.206 84.5544 29.206H84.7785V29.4635H84.5042C84.3348 29.4635 84.2077 29.4245 84.1229 29.3464C84.0382 29.2684 83.9958 29.1402 83.9958 28.9618V27.8815H83.7584V27.6306H83.9958V27.1691H84.3002V27.6306H84.7785V27.8815H84.3002ZM86.7259 27.6306L85.6222 30.3264H85.3078L85.669 29.4434L84.9299 27.6306H85.2677L85.8429 29.1157L86.4115 27.6306H86.7259Z" fill="white"/>
</svg>
